<svg xmlns="http://www.w3.org/2000/svg" width="32" height="32" fill="none" viewBox="0 0 32 32">
  <path fill="#fff" d="M2.944 24.124h9.144l.755-3.909h11.83a36.807 36.807 0 0 1-2.134 2.324C15.316 29.762 6.533 32.69 2.922 29.08c-2.637-2.636-1.788-8.03 1.674-13.561l-1.652 8.606Zm21.9-22.749c1.732.011 3.196.51 4.234 1.547 2.896 2.896 1.586 9.118-2.771 15.194l.526-2.678H13.757l.365-1.875h13.831l1.097-5.761H11.23a34.642 34.642 0 0 1 2.695-2.139c3.885-2.777 7.827-4.308 10.918-4.288ZM11.232 7.803a37.332 37.332 0 0 0-1.77 1.66c-1.95 1.948-3.587 4.01-4.866 6.055l1.481-7.715h5.155Z"/>
</svg>
