<svg xmlns="http://www.w3.org/2000/svg" width="32" height="32" fill="none" viewBox="0 0 32 32">
  <path fill="#fff" d="M16 1c8.284 0 15 6.716 15 15 0 8.284-6.716 15-15 15-8.284 0-15-6.716-15-15C1 7.716 7.716 1 16 1Zm0 1.5C8.544 2.5 2.5 8.544 2.5 16S8.544 29.5 16 29.5 29.5 23.456 29.5 16 23.456 2.5 16 2.5Zm0 1.658c6.627 0 12 5.302 12 11.842 0 6.54-5.373 11.843-12 11.843S4 22.54 4 16 9.373 4.158 16 4.158ZM10.64 15.93c-.908.059-1.602.797-1.54 1.64l.221 3.067c.062.843.856 1.484 1.765 1.424.909-.059 1.602-.798 1.541-1.641l-.223-3.066c-.061-.843-.854-1.484-1.763-1.424Zm10.603-.593c-.909.06-1.603.797-1.542 1.64l.223 3.067c.061.843.856 1.484 1.765 1.425.908-.06 1.602-.798 1.54-1.64l-.222-3.067c-.062-.843-.855-1.484-1.764-1.425Zm-11.201 1.278c.094-.038.223.03.2.135a.539.539 0 0 0-.009.114c0 .042 0 .085-.01.126a.56.56 0 0 1-.135.267.221.221 0 0 1-.361-.031c-.079-.125-.064-.27.011-.395.074-.123.171-.163.301-.215h.003Zm10.658-.627c.094-.037.224.031.2.135a.54.54 0 0 0-.008.114c0 .042 0 .085-.011.126a.562.562 0 0 1-.135.267.221.221 0 0 1-.361-.031c-.079-.125-.064-.27.011-.395.074-.122.171-.162.3-.214l.004-.002Z"/>
</svg>
