<svg xmlns="http://www.w3.org/2000/svg" width="32" height="32" fill="none" viewBox="0 0 32 32">
  <path fill="#fff" d="M21.57 28.749 15.998 32l-5.571-3.251 5.57-3.251 5.571 3.251Zm8.144-20.75v16.004l-5.915 3.45a2.595 2.595 0 0 0-.934-.948l-12.437-7.253V17.3H21.57v1.95l-3.003 1.751 2.573 1.5 1.714-1.001a2.605 2.605 0 0 0 1.286-2.25v-6.5c0-.928-.49-1.786-1.286-2.251l-4.287-2.5 4.295-2.504c.395-.232.713-.561.933-.947h.003l5.915 3.451ZM8.2 4.548c.222.386.539.715.934.947l12.437 7.253V14.7H10.428v-1.952l3-1.749-2.572-1.5-1.714 1a2.606 2.606 0 0 0-1.286 2.251v6.5c0 .928.49 1.785 1.286 2.25l4.284 2.498-4.292 2.505a2.579 2.579 0 0 0-.934.947l-5.916-3.452V7.999L8.2 4.548ZM21.57 3.25 15.998 6.5l-5.571-3.249L15.999 0l5.57 3.251Z"/>
</svg>
