<svg xmlns="http://www.w3.org/2000/svg" width="32" height="32" fill="none" viewBox="0 0 32 32">
  <path fill="#fff" d="m29.49 6.041.08.912c.15 1.646 1.042 16.306-12.79 24.345l-.78.452-.78-.452C1.389 23.259 2.282 8.598 2.43 6.953l.083-.912L16.002.25 29.49 6.041ZM5.456 8.125c-.09 3.292.476 13.703 10.545 20.047 2.405-1.516 4.268-3.264 5.71-5.092l-3.401-3.307a.459.459 0 0 0-.456-.114 5.357 5.357 0 0 1-5.273-1.243 5.197 5.197 0 0 1-1.331-5.071.475.475 0 0 1 .78-.203l2.596 2.583a.477.477 0 0 0 .66 0l1.909-1.903a.473.473 0 0 0 0-.657l-2.598-2.581a.475.475 0 0 1-.115-.444.473.473 0 0 1 .318-.333 5.156 5.156 0 0 1 5.099 1.326 5.063 5.063 0 0 1 1.258 5.23.462.462 0 0 0 .122.472l2.732 2.638c2.4-4.738 2.587-9.352 2.532-11.348L16.001 3.599 5.456 8.125Z"/>
</svg>
